<svg width="13" height="13" fill="none" xmlns="http://www.w3.org/2000/svg"><path d="M4.17 6.256a2.085 2.085 0 1 1 4.17-.002 2.085 2.085 0 0 1-4.17.002Zm-1.127 0a3.212 3.212 0 1 0 6.423 0 3.212 3.212 0 0 0-6.423 0Zm5.799-3.34a.75.75 0 1 0 .75-.75.75.75 0 0 0-.75.75Zm-5.115 8.431c-.61-.027-.94-.129-1.161-.215-.292-.114-.5-.249-.72-.468a1.93 1.93 0 0 1-.467-.719c-.086-.22-.188-.552-.215-1.161-.03-.66-.037-.858-.037-2.528s.007-1.868.037-2.528c.027-.61.13-.941.215-1.162.113-.292.249-.5.468-.72.218-.219.426-.354.719-.468.22-.085.552-.187 1.161-.215.66-.03.857-.036 2.527-.036 1.67 0 1.867.006 2.527.036.61.028.94.13 1.161.215.292.114.5.25.72.468.219.22.354.428.467.72.086.22.188.552.216 1.162.03.66.036.857.036 2.528 0 1.67-.006 1.868-.036 2.528-.028.61-.13.941-.216 1.161-.113.292-.249.5-.467.72a1.944 1.944 0 0 1-.72.467c-.22.086-.551.188-1.161.215-.66.03-.857.037-2.527.037-1.67 0-1.868-.006-2.527-.037ZM3.675.037c-.665.031-1.12.137-1.518.291-.41.16-.76.374-1.107.722a3.057 3.057 0 0 0-.722 1.108c-.154.398-.26.853-.29 1.519-.03.667-.038.88-.038 2.579 0 1.698.007 1.912.038 2.579.03.666.136 1.12.29 1.518.16.411.374.76.722 1.108.348.348.696.562 1.107.722.399.154.853.26 1.518.29.668.03.88.038 2.579.038 1.698 0 1.911-.007 2.578-.038.666-.03 1.12-.136 1.518-.29.411-.16.76-.374 1.108-.722.348-.348.561-.697.721-1.108.155-.398.26-.852.29-1.518.03-.668.038-.88.038-2.58 0-1.698-.007-1.911-.037-2.578-.03-.666-.136-1.121-.29-1.519a3.077 3.077 0 0 0-.722-1.108A3.06 3.06 0 0 0 10.35.328c-.399-.154-.853-.26-1.518-.29C8.166.008 7.953 0 6.254 0 4.556 0 4.343.007 3.675.038Z" fill="#fff"/></svg>